<svg width="15" height="16" viewBox="0 0 15 16" fill="none" xmlns="http://www.w3.org/2000/svg">
<path d="M7.48036 0.492561C3.40026 0.492561 0.0888672 3.80395 0.0888672 7.88405C0.0888672 11.9642 3.40026 15.2755 7.48036 15.2755H11.1761V13.7972H7.48036C4.27245 13.7972 1.56717 11.092 1.56717 7.88405C1.56717 4.67615 4.27245 1.97086 7.48036 1.97086C10.6883 1.97086 13.3936 4.67615 13.3936 7.88405V8.94104C13.3936 9.52497 12.8688 10.1015 12.2848 10.1015C11.7009 10.1015 11.1761 9.52497 11.1761 8.94104V7.88405C11.1761 5.844 9.52041 4.18831 7.48036 4.18831C5.44031 4.18831 3.78461 5.844 3.78461 7.88405C3.78461 9.92411 5.44031 11.5798 7.48036 11.5798C8.50039 11.5798 9.43172 11.1659 10.0969 10.4933C10.5774 11.1511 11.4052 11.5798 12.2848 11.5798C13.741 11.5798 14.8719 10.3972 14.8719 8.94104V7.88405C14.8719 3.80395 11.5605 0.492561 7.48036 0.492561ZM7.48036 10.1015C6.25337 10.1015 5.26291 9.11104 5.26291 7.88405C5.26291 6.65707 6.25337 5.66661 7.48036 5.66661C8.70735 5.66661 9.69781 6.65707 9.69781 7.88405C9.69781 9.11104 8.70735 10.1015 7.48036 10.1015Z" fill="#0B4654" fill-opacity="0.5"/>
</svg>
