<svg width="13" height="12" viewBox="0 0 13 12" fill="none" xmlns="http://www.w3.org/2000/svg">
<g clip-path="url(#clip0_2_978)">
<path d="M3.55633 4.91254C3.78688 4.215 4.23184 3.60809 4.82772 3.1784C5.4236 2.7487 6.13996 2.51816 6.87461 2.51967C7.70739 2.51967 8.46033 2.81533 9.05165 3.29922L10.7724 1.57898C9.72379 0.664895 8.38001 0.100677 6.87461 0.100677C4.54383 0.100677 2.53728 1.43016 1.57245 3.37757L3.55633 4.91254Z" fill="#EA4335"/>
<path d="M8.86543 8.97689C8.32832 9.32331 7.64633 9.5081 6.87466 9.5081C6.14293 9.5096 5.42928 9.2809 4.83472 8.85437C4.24017 8.42784 3.79484 7.8251 3.56179 7.13148L1.57101 8.6428C2.05947 9.63143 2.81538 10.4633 3.7529 11.0438C4.69041 11.6244 5.77195 11.9304 6.87466 11.9271C8.31994 11.9271 9.70067 11.4131 10.735 10.4488L8.86593 8.97689H8.86543Z" fill="#34A853"/>
<path d="M10.7348 10.4488C11.8165 9.43959 12.5187 7.93763 12.5187 6.01388C12.5187 5.66401 12.4649 5.28803 12.3846 4.93866H6.87451V7.22362H10.046C9.88975 7.99184 9.46942 8.58661 8.86578 8.97688L10.7348 10.4488Z" fill="#4A90E2"/>
<path d="M3.56181 7.13147C3.44126 6.77122 3.38001 6.39377 3.38047 6.01388C3.38047 5.62854 3.44207 5.25847 3.55639 4.91255L1.57251 3.37758C1.16666 4.19689 0.957444 5.09956 0.961483 6.01388C0.961483 6.95999 1.18076 7.8519 1.57103 8.64279L3.56181 7.13147Z" fill="#FBBC05"/>
</g>
<defs>
<clipPath id="clip0_2_978">
<rect width="11.8264" height="11.8264" fill="white" transform="translate(0.961426 0.100677)"/>
</clipPath>
</defs>
</svg>
