<svg width="15" height="17" viewBox="0 0 15 17" fill="none" xmlns="http://www.w3.org/2000/svg">
<path d="M11.9159 5.83549H13.3942C13.5902 5.83549 13.7782 5.91336 13.9168 6.05198C14.0554 6.1906 14.1333 6.37861 14.1333 6.57464V15.4444C14.1333 15.6405 14.0554 15.8285 13.9168 15.9671C13.7782 16.1057 13.5902 16.1836 13.3942 16.1836H1.56776C1.37173 16.1836 1.18372 16.1057 1.04511 15.9671C0.906488 15.8285 0.828613 15.6405 0.828613 15.4444V6.57464C0.828613 6.37861 0.906488 6.1906 1.04511 6.05198C1.18372 5.91336 1.37173 5.83549 1.56776 5.83549H3.04606V5.09634C3.04606 3.92013 3.51331 2.7921 4.34501 1.9604C5.17672 1.12869 6.30475 0.661446 7.48096 0.661446C8.65717 0.661446 9.7852 1.12869 10.6169 1.9604C11.4486 2.7921 11.9159 3.92013 11.9159 5.09634V5.83549ZM10.4376 5.83549V5.09634C10.4376 4.3122 10.1261 3.56018 9.57159 3.00571C9.01712 2.45124 8.2651 2.13974 7.48096 2.13974C6.69682 2.13974 5.9448 2.45124 5.39033 3.00571C4.83586 3.56018 4.52436 4.3122 4.52436 5.09634V5.83549H10.4376ZM6.74181 10.2704V11.7487H8.22011V10.2704H6.74181ZM3.78521 10.2704V11.7487H5.26351V10.2704H3.78521ZM9.69841 10.2704V11.7487H11.1767V10.2704H9.69841Z" fill="#0B4654" fill-opacity="0.5"/>
</svg>
